<?xml version="1.0" encoding="utf-8"?>
<!-- Generator: Adobe Illustrator 27.5.0, SVG Export Plug-In . SVG Version: 6.00 Build 0)  -->
<svg version="1.1" xmlns="http://www.w3.org/2000/svg" xmlns:xlink="http://www.w3.org/1999/xlink" x="0px" y="0px"
	 viewBox="0 0 750 500" style="enable-background:new 0 0 750 500;" xml:space="preserve">
<g id="BACKGROUND">
	<g>
		<rect style="fill:#0C1A40;" width="750" height="500"/>
		<g>
			<ellipse style="fill:#19386B;" cx="352.538" cy="253.774" rx="247.784" ry="207.774"/>
			<ellipse style="fill:#06002B;" cx="375" cy="440.382" rx="331.357" ry="34.618"/>
		</g>
	</g>
</g>
<g id="OBJECTS">
	<g>
		<g>
			<path style="fill:#2F0642;" d="M79.581,296.033c1.719,9.881,5.007,19.468,7.064,29.339c2.504,11.901,4.994,23.803,7.484,35.704
				c0.447,2.14,0.893,4.269,1.353,6.409c1.746,8.265,3.546,16.531,5.616,24.742c0.095,0.229,0.176,0.459,0.271,0.677
				c2.869,7.206,6.293,14.249,10.258,21.106c2.49,4.291,3.451,8.833,5.44,13.113h287.483c3.18-18.256,1.38-36.992,0.176-55.478
				c-0.406-6.224-0.744-12.458-1.001-18.682c-0.433-9.718-0.677-19.446-0.758-29.164c-0.108-14.38,1.232-29.437-3.546-43.467
				c-4.29-12.578-13.533-24.054-26.173-32.199c-30.301-19.512-70.751-12.567-106.505-11.716
				c-11.584,0.284-23.128,0.469-34.712,0.469c-10.786,0-21.558-1.834-32.385-2.347c-33.576-1.562-72.727-0.48-100.916,16.149
				C80.312,261.563,76.59,278.738,79.581,296.033z"/>
			<path style="fill:#00002B;" d="M153.846,405.385c-3.421-27.884-6.59-56.444-16.13-81.469
				c-9.539-25.025-26.929-46.318-47.369-47.979c-3.638-0.296-7.398-0.089-10.898,1.135c-0.375,1.966-0.61,3.967-0.719,5.993
				c-0.043,1.148-0.066,2.302-0.065,3.463c0.046,3.139,0.367,6.319,0.917,9.505c1.719,9.881,5.007,19.468,7.064,29.339
				c2.504,11.901,4.994,23.803,7.484,35.704c0.447,2.14,0.893,4.269,1.353,6.409c1.746,8.265,3.546,16.531,5.616,24.742
				c0.095,0.229,0.176,0.458,0.271,0.677c2.869,7.206,6.293,14.249,10.258,21.106c2.49,4.291,3.451,8.833,5.44,13.113h39.402
				C155.639,419.862,154.733,412.615,153.846,405.385z"/>
			<path style="fill:#781180;" d="M403.725,352.963c-0.433-9.718-0.677-19.446-0.758-29.164c-0.108-14.38,1.232-29.437-3.546-43.467
				c-4.29-12.578-13.533-24.054-26.173-32.199c-30.301-19.512-70.751-12.567-106.505-11.716
				c-11.584,0.284-23.128,0.469-34.712,0.469c-10.786,0-21.558-1.834-32.385-2.347c-33.576-1.562-72.727-0.48-100.916,16.149
				c-2.384,1.408-4.518,2.923-6.427,4.529c2.216,0.133,4.215,0.278,5.68,0.574c9.827,1.982,19.221,5.6,27.964,9.663
				c33.481,15.56,63.804,38.64,74.552,68.584c5.428,15.122,5.797,31.664,15.372,45.382c13.541,19.4,41.857,28.32,68.406,34.396
				c23.714,5.427,48.084,9.771,72.731,9.537c16.704-0.159,33.626-2.569,48.932-7.823c1.05-14.545-0.262-29.293-1.213-43.884
				C404.321,365.421,403.982,359.187,403.725,352.963z"/>
			<path style="fill:#2F0642;" d="M300.813,313.692c2.378-0.076,4.787-0.149,7.104,0.391c1.828,0.426,3.545,1.221,5.247,2.012
				c3.934,1.827,7.868,3.653,11.803,5.48c13.395,6.219,26.817,12.453,39.502,20.014c9.21,5.49,18.176,11.745,28.461,14.774
				c-0.387,2.189-2.396,3.668-4.285,4.842c-18.703,11.628-41.196,16.406-63.205,15.627s-43.589-6.897-63.771-15.713
				c-1.624-0.71-3.296-1.477-4.45-2.823c-1.031-1.203-1.55-2.765-1.834-4.323c-1.488-8.161,2.893-16.236,8.03-22.75
				c4.311-5.466,9.397-11.045,15.144-15.042C284.175,312.274,294.045,313.908,300.813,313.692z"/>
			<path style="fill:#D45959;" d="M404.727,371.645c-0.406-6.224-0.744-12.458-1.001-18.682c-0.433-9.718-0.677-19.446-0.758-29.164
				c-0.108-14.38,1.232-29.437-3.546-43.467c-4.29-12.578-13.533-24.054-26.173-32.199c-30.301-19.512-70.751-12.567-106.505-11.716
				c-11.584,0.284-23.128,0.469-34.712,0.469c-10.786,0-21.558-1.834-32.385-2.347c-33.576-1.562-72.727-0.48-100.916,16.149
				c-2.384,1.408-4.518,2.923-6.427,4.529c0.267,0.016,0.519,0.034,0.78,0.05c28.182-16.576,67.282-17.654,100.82-16.094
				c10.827,0.513,21.599,2.348,32.385,2.348c11.584,0,23.128-0.186,34.712-0.47c35.754-0.852,76.205-7.796,106.505,11.716
				c12.64,8.145,21.883,19.621,26.173,32.199c4.777,14.03,3.437,29.087,3.546,43.467c0.081,9.718,0.325,19.446,0.758,29.164
				c0.257,6.224,0.595,12.458,1.001,18.682c0.889,13.636,2.066,27.406,1.364,41.022c1.885-0.551,3.751-1.139,5.592-1.771
				C406.989,400.984,405.677,386.237,404.727,371.645z"/>
			<path style="fill:#2F0642;" d="M221.814,270.074c5.226-3.769,7.2-10.612,7.853-17.022c0.493-4.841,0.396-9.906-1.621-14.334
				c-0.309-0.678-0.665-1.329-1.048-1.963c-9.105-0.417-18.209-1.782-27.351-2.215c-21.294-0.99-44.827-0.911-66.387,3.516
				c0.051,0.313,0.117,0.627,0.202,0.944c1.018,3.831,4.133,6.834,7.669,8.627c1.651,0.837,3.626,1.693,4.078,3.488
				c0.58,2.305-1.721,4.191-3.528,5.734c-3.781,3.229-6.375,7.603-8.449,12.143c13.119,6.635,25.547,14.453,36.244,23.418
				c4.488-2.753,8.507-6.258,11.734-10.427c1.72-2.222,3.267-4.709,3.641-7.494c8.296,0.09,16.615,0.18,24.866-0.694
				C213.961,273.345,218.352,272.571,221.814,270.074z"/>
		</g>
		<g>
			<path style="fill:#2F0642;" d="M440.748,417.177c-0.189,0.295-0.386,0.59-0.583,0.876c-0.015,0.029-0.038,0.057-0.061,0.086
				c-0.121,0.181-0.25,0.362-0.386,0.533c-0.008,0.029-0.03,0.048-0.053,0.076c-0.129,0.19-0.273,0.371-0.416,0.552
				c-0.053,0.076-0.113,0.143-0.174,0.209c-0.167,0.219-0.341,0.428-0.515,0.628c-0.008,0.009-0.015,0.019-0.023,0.019
				c-0.144,0.181-0.295,0.352-0.454,0.514c-0.166,0.19-0.341,0.381-0.522,0.552c-0.053,0.067-0.113,0.124-0.174,0.181
				c-0.045,0.048-0.091,0.095-0.144,0.143c-0.227,0.228-0.469,0.457-0.711,0.666c-0.023,0.019-0.038,0.038-0.061,0.057
				c-0.023,0.019-0.045,0.038-0.068,0.057c-0.045,0.047-0.091,0.086-0.144,0.124c-0.083,0.076-0.166,0.152-0.257,0.219
				c-0.091,0.086-0.189,0.162-0.288,0.238c-0.023,0.028-0.045,0.047-0.068,0.067c-0.03,0.019-0.06,0.048-0.091,0.067
				c-0.098,0.086-0.197,0.162-0.295,0.228c-0.235,0.181-0.469,0.362-0.712,0.523c-0.06,0.048-0.113,0.086-0.174,0.114
				c-0.235,0.171-0.462,0.324-0.704,0.457c-0.015,0.019-0.03,0.029-0.053,0.038c-0.129,0.086-0.257,0.162-0.379,0.228
				c-0.053,0.038-0.106,0.067-0.159,0.095v0.009c-0.136,0.076-0.265,0.143-0.394,0.209c-0.098,0.067-0.197,0.114-0.303,0.162
				c-0.068,0.048-0.136,0.076-0.204,0.105c-0.038,0.029-0.076,0.048-0.113,0.057c-0.242,0.124-0.484,0.238-0.727,0.343
				c-0.076,0.038-0.151,0.076-0.227,0.105c-0.167,0.076-0.341,0.143-0.515,0.209c-0.257,0.105-0.515,0.2-0.772,0.285
				c-0.136,0.048-0.288,0.095-0.431,0.133c-0.159,0.057-0.318,0.105-0.477,0.152c-0.015,0-0.023,0.009-0.038,0.009
				c-0.136,0.038-0.265,0.067-0.401,0.105c-0.015,0-0.03,0-0.045,0.009c-0.318,0.076-0.643,0.152-0.969,0.209
				c-1.022,0.2-2.059,0.295-3.103,0.295h-19.808c3.179-18.253,1.377-36.992,0.174-55.473c-0.409-6.224-0.742-12.457-0.999-18.681
				c-0.439-9.726-0.681-19.452-0.757-29.169c-0.023-3.064,0.015-6.157,0.045-9.269c0.008-0.029,0.008-0.067,0.008-0.105
				c6.683-3.169,13.647-5.339,20.762-5.253c0.31,0.004,0.621,0.033,0.932,0.047c0.002-0.003,0.004-0.006,0.007-0.009
				c0.116,0.005,0.233,0.021,0.349,0.027c0.503,0.028,1.005,0.063,1.508,0.116c0.208,0.022,0.415,0.052,0.623,0.079
				c0.5,0.064,1,0.13,1.498,0.219c0.184,0.033,0.367,0.077,0.551,0.113c0.514,0.102,1.028,0.203,1.538,0.333
				c0.676,0.17,1.349,0.362,2.016,0.579c0.295,0.095,0.59,0.2,0.878,0.305c0.295,0.105,0.583,0.219,0.87,0.333
				c0.273,0.105,0.545,0.219,0.817,0.333c0.023,0.009,0.045,0.019,0.076,0.029c0.272,0.124,0.553,0.247,0.825,0.381
				c0.28,0.133,0.56,0.266,0.84,0.409c0.56,0.285,1.113,0.59,1.658,0.914c0.295,0.171,0.583,0.352,0.87,0.533
				c0.515,0.333,1.022,0.676,1.514,1.047c0.265,0.19,0.515,0.381,0.772,0.581c0.25,0.2,0.5,0.4,0.749,0.609
				c0.681,0.571,1.34,1.18,1.968,1.818c0.22,0.219,0.439,0.447,0.651,0.685c0.023,0.019,0.053,0.048,0.076,0.076
				c0.227,0.238,0.447,0.495,0.666,0.752c0.227,0.257,0.447,0.523,0.666,0.799c0.167,0.209,0.333,0.419,0.492,0.638
				c0.348,0.447,0.681,0.914,0.992,1.389c0.136,0.2,0.272,0.4,0.401,0.609c0.379,0.59,0.734,1.19,1.075,1.818
				c2.271,4.178,3.686,8.993,4.905,13.818C460.76,363.112,454.924,394.708,440.748,417.177z"/>
			<path style="fill:#781180;" d="M454.569,338.548c-1.217-4.825-2.633-9.636-4.907-13.814
				c-5.438-9.992-15.291-15.107-24.939-15.524c-1.445,1.809-2.73,4.05-3.841,6.854c-4.355,10.997-5.561,24.041-5.71,36.43
				c-0.261,21.654,4.134,43.246,8.522,64.33c0.719,3.454,1.515,7.084,3.509,9.698c0.082,0.107,0.172,0.201,0.257,0.303
				c5.202-0.98,9.966-4.392,13.283-9.647C454.925,394.712,460.764,363.108,454.569,338.548z"/>
			<path style="fill:#D45959;" d="M440.748,417.177c-0.189,0.295-0.386,0.59-0.583,0.876c-0.015,0.029-0.038,0.057-0.061,0.086
				c-0.121,0.181-0.25,0.362-0.386,0.533c-0.008,0.029-0.03,0.048-0.053,0.076c-0.129,0.19-0.273,0.371-0.416,0.552
				c-0.053,0.076-0.113,0.143-0.174,0.209c-0.167,0.219-0.333,0.428-0.515,0.628c-0.008,0.009-0.015,0.019-0.023,0.019
				c-0.144,0.181-0.295,0.352-0.454,0.514c-0.166,0.19-0.341,0.381-0.522,0.552c-0.053,0.067-0.113,0.124-0.174,0.181
				c-0.045,0.048-0.091,0.095-0.144,0.143c-0.03,0.028-0.053,0.057-0.083,0.086c-0.174,0.171-0.356,0.343-0.537,0.504
				c-0.03,0.029-0.06,0.057-0.091,0.076c-0.023,0.019-0.038,0.038-0.061,0.057c-0.023,0.019-0.045,0.038-0.068,0.057
				c-0.045,0.047-0.091,0.086-0.144,0.124c-0.083,0.086-0.174,0.152-0.257,0.219c-0.091,0.086-0.189,0.162-0.288,0.238
				c-0.053,0.047-0.106,0.095-0.159,0.133c-0.098,0.086-0.197,0.162-0.295,0.228c-0.189,0.143-0.378,0.286-0.568,0.428
				c-0.045,0.029-0.098,0.067-0.144,0.095c-0.06,0.048-0.113,0.086-0.174,0.114c-0.235,0.171-0.462,0.324-0.704,0.457
				c-0.015,0.019-0.03,0.029-0.053,0.038c-0.121,0.086-0.25,0.162-0.379,0.228c-0.053,0.038-0.106,0.067-0.159,0.095
				c-0.129,0.076-0.257,0.152-0.394,0.219c-0.098,0.067-0.197,0.114-0.303,0.162c-0.068,0.048-0.136,0.076-0.204,0.105
				c-0.038,0.029-0.076,0.048-0.113,0.057c-0.242,0.124-0.484,0.238-0.727,0.343c-0.076,0.038-0.151,0.076-0.227,0.105
				c-0.167,0.076-0.341,0.143-0.515,0.209c-0.083,0.038-0.174,0.076-0.265,0.095c-0.167,0.076-0.333,0.133-0.507,0.19
				c-0.136,0.048-0.288,0.095-0.431,0.133c-0.159,0.057-0.318,0.105-0.477,0.152c-0.015,0-0.023,0.009-0.038,0.009
				c0.015-0.009,0.023-0.019,0.038-0.029c2.642-1.685,5.003-4.083,6.895-7.071c14.184-22.469,20.02-54.074,13.828-78.637
				c-1.219-4.825-2.634-9.631-4.912-13.809c-4.837-8.889-13.162-13.932-21.738-15.236c-1.377-0.209-2.763-0.314-4.14-0.333
				c-5.382-0.057-10.68,1.171-15.834,3.141c0.008-0.029,0.008-0.067,0.008-0.105c6.683-3.169,13.647-5.339,20.762-5.253
				c0.31,0.004,0.621,0.033,0.932,0.047c0.002-0.003,0.004-0.006,0.007-0.009c0.116,0.005,0.233,0.021,0.349,0.027
				c0.503,0.028,1.005,0.063,1.508,0.116c0.208,0.022,0.415,0.052,0.623,0.079c0.5,0.064,1,0.13,1.498,0.219
				c0.184,0.033,0.367,0.077,0.551,0.113c0.514,0.102,1.028,0.203,1.538,0.333c0.676,0.17,1.349,0.362,2.016,0.579
				c0.295,0.095,0.59,0.2,0.878,0.305c0.295,0.105,0.583,0.219,0.87,0.333c0.273,0.105,0.545,0.219,0.817,0.333
				c0.023,0.009,0.045,0.019,0.076,0.029c0.272,0.124,0.553,0.247,0.825,0.381c0.28,0.133,0.56,0.266,0.84,0.409
				c0.56,0.285,1.113,0.59,1.658,0.914c0.295,0.171,0.583,0.352,0.87,0.533c0.515,0.333,1.022,0.676,1.514,1.047
				c0.265,0.19,0.515,0.381,0.772,0.581c0.25,0.2,0.5,0.4,0.749,0.609c0.681,0.571,1.34,1.18,1.968,1.818
				c0.22,0.219,0.439,0.447,0.651,0.685c0.023,0.019,0.053,0.048,0.076,0.076c0.227,0.238,0.447,0.495,0.666,0.752
				c0.227,0.257,0.447,0.523,0.666,0.799c0.167,0.209,0.333,0.419,0.492,0.638c0.348,0.447,0.681,0.914,0.992,1.389
				c0.136,0.2,0.272,0.4,0.401,0.609c0.379,0.59,0.734,1.19,1.075,1.818c2.271,4.178,3.686,8.993,4.905,13.818
				C460.76,363.112,454.924,394.708,440.748,417.177z"/>
		</g>
		<path style="fill:#2F0642;" d="M94.441,370.63c0,6.846,3.979,15.024,6.658,21.597c0.095,0.229,0.176,0.459,0.271,0.677
			c2.869,7.206,6.293,14.249,10.258,21.106c2.49,4.291,3.451,8.833,5.44,13.113h311.423c0.419-1.223,0.798-2.446,1.137-3.68
			c2.49-8.975,4.655-18.267,6.036-27.395c1.286-8.495,2.855-20.713-2.043-28.574c-5.4-8.648-18.202-12.196-29.854-14.5
			c-0.013,0-0.027,0-0.041-0.011c-49.274-9.685-100.943-10.296-151.367-8.222c-38.65,1.594-76.814,7.512-114.828,13.419
			c-9.419,1.463-18.852,2.926-28.176,4.782c-4.804,0.961-11.368,1.354-13.871,4.542C94.819,368.315,94.441,369.352,94.441,370.63z"
			/>
		<g>
			<path style="fill:#2F0642;" d="M429.625,423.445c-0.341,1.228-0.722,2.458-1.141,3.682H117.061
				c-1.989-4.285-2.938-8.826-5.429-13.121c-3.972-6.848-7.401-13.9-10.265-21.099c-2.662-6.69-6.926-15.195-6.933-22.28
				c-0.006-6.17,8.851-6.47,14.924-7.683c9.317-1.861,18.748-3.323,28.17-4.786c38.012-5.904,76.174-11.823,114.834-13.413
				c50.438-2.074,102.117-1.467,151.398,8.234c11.664,2.296,24.462,5.845,29.86,14.497c4.901,7.855,3.331,20.079,2.045,28.569
				C434.282,405.176,432.115,414.466,429.625,423.445z"/>
			<path style="fill:#781180;" d="M433.62,367.475c-5.398-8.652-18.196-12.201-29.86-14.497
				c-49.281-9.701-100.96-10.308-151.398-8.234c-17.781,0.731-35.457,2.385-53.061,4.525c-1.203,10.004,2.859,20.821,10.948,30.338
				c5.184,6.1,11.81,11.107,19.186,13.997c11.179,4.38,23.722,5.835,36.05,7.097c44.158,4.521,88.558,7.286,132.938,10.051
				c11.275,0.702,22.707,1.34,34.072,1.498c1.264-5.393,2.356-10.826,3.171-16.205C436.951,387.555,438.521,375.331,433.62,367.475z
				"/>
			<path style="fill:#2F0642;" d="M362.134,359.706c-10.636-0.457-21.272-0.914-31.909-1.371
				c-7.356-0.316-14.712-0.632-22.068-0.948c-16.365-0.703-32.949-1.444-48.578-6.346c-2.639-0.828-5.654-2.242-6.076-4.976
				c-0.428-2.775,2.124-5.069,4.582-6.427c6.096-3.37,13.12-4.635,20.046-5.372c11.869-1.263,23.837-1.12,35.772-0.975
				c16.61,0.201,33.458,0.436,49.415,5.052c6.258,1.811,12.281,8.144,13.336,14.906
				C377.811,360.659,366.928,359.912,362.134,359.706z"/>
			<path style="fill:#D45959;" d="M304.991,354.577c-5.71-0.029-11.392,0.1-16.994,0.593c-3.275,0.288-7.788-0.033-7.931,3.913
				c-0.116,3.175,3.556,6.782,5.626,8.8c6.076,5.925,12.427,11.566,19.027,16.901c-2.025-2.785-3.417-6.028-4.043-9.414
				c-0.174-0.941-0.286-1.931,0.017-2.839c0.525-1.573,2.151-2.499,3.731-3.002c5.105-1.626,10.613-0.326,15.885,0.633
				c7.29,1.325,14.684,1.973,22.065,2.619c10.423,0.912,20.846,1.825,31.27,2.737c8.996,0.787,17.433-0.976,25.771-4.725
				c2.834-1.274,5.573-3.081,7.115-5.779c1.542-2.698,1.574-6.43-0.576-8.674c-3.563-3.718-9.603-2.352-14.113-2.113
				c-4.998,0.265-9.952-0.605-15.073-0.375c-13.521,0.608-27.051,1.01-40.585,1.206C325.908,355.208,315.404,354.63,304.991,354.577
				z"/>
			<path style="fill:#2F0642;" d="M258.392,384.055c-1.317-4.483-3.576-9.183-6.469-13.386c-2.502-3.634-5.48-6.895-8.734-9.321
				c-6.571-4.898-13.136-9.806-19.743-14.657c-8.065,0.732-16.113,1.6-24.145,2.577c-0.574,4.771,0.063,9.726,1.75,14.638
				c12.41,7.946,24.442,16.568,30.508,30.424c0.011,0.025,0.021,0.051,0.032,0.077c9.826,3.48,20.6,4.896,31.297,6.024
				C260.897,392.834,258.802,385.452,258.392,384.055z"/>
		</g>
		<g>
			<path style="fill:#2F0642;" d="M75.175,344.19c1.731-12.841,8.454-20.325,17.461-25.592c9.016-5.272,18.669-9.543,28.612-9.428
				c9.942,0.114,20.264,5.247,25.88,15.564c2.273,4.177,3.69,8.989,4.907,13.814c7.178,28.46,8.066,58.661,8.658,88.579h-55.897
				c-9.064,0-17.138-7.095-20.35-17.751c-2.489-8.258-4.691-16.634-6.269-25.235C75.783,371.094,73.362,357.649,75.175,344.19z"/>
			<path style="fill:#00002B;" d="M116.252,427.126c-3.817-11.175-8.876-21.692-12.76-32.858
				c-7.021-20.184-13.355-45.935-7.09-67.694c0.482-1.674,1.039-3.325,1.676-4.948c1.077-2.744,2.755-5.35,4.187-8.019
				c-3.277,1.449-6.492,3.156-9.629,4.991c-9.007,5.267-15.73,12.751-17.461,25.592c-1.814,13.459,0.608,26.904,3.001,39.95
				c1.578,8.601,3.78,16.978,6.269,25.235c3.212,10.657,11.286,17.751,20.35,17.751H116.252z"/>
			<path style="fill:#781180;" d="M152.034,338.548c-1.217-4.825-2.633-9.636-4.907-13.814
				c-5.615-10.317-15.937-15.45-25.879-15.564c-1.555-0.018-3.102,0.083-4.642,0.266c-4.305,7.487-6.547,15.918-7.28,24.836
				c-2.431,29.581,11.697,64.514,21.887,88.084c0.648,1.499,1.336,3.115,2.068,4.77h27.411
				C160.101,397.209,159.212,367.008,152.034,338.548z"/>
			<path style="fill:#D45959;" d="M147.127,324.734c-5.615-10.317-15.937-15.45-25.879-15.564c-1.555-0.018-3.102,0.083-4.642,0.266
				c-0.335,0.583-0.654,1.174-0.964,1.769c2.428,1.573,4.793,3.135,7.09,4.963c16.263,12.945,26.144,41.642,30.689,64.253
				c3.055,15.2,2.975,31.231,4.526,46.705h2.746c-0.592-29.917-1.48-60.118-8.658-88.579
				C150.817,333.723,149.401,328.911,147.127,324.734z"/>
		</g>
	</g>
	<g>
		<g>
			<g>
				<path style="fill:#FFFFFF;" d="M636.987,217.595H416.574c-5.096,0-9.227,3.817-9.227,8.525v133.798
					c0,4.708,4.131,8.525,9.227,8.525h220.413c5.096,0,9.227-3.817,9.227-8.525V226.12
					C646.214,221.412,642.083,217.595,636.987,217.595z"/>
				<path style="fill:#385AB5;" d="M644.086,211.384H423.673c-5.096,0-9.227,4.131-9.227,9.227v144.817
					c0,5.096,4.131,9.227,9.227,9.227h220.413c5.096,0,9.227-4.131,9.227-9.227V220.611
					C653.314,215.515,649.183,211.384,644.086,211.384z"/>
				<path style="fill:#06002B;" d="M650.299,211.384H429.886c-5.096,0-9.227,4.131-9.227,9.227v144.817
					c0,5.096,4.131,9.227,9.227,9.227h220.413c5.096,0,9.227-4.131,9.227-9.227V220.611
					C659.526,215.515,655.395,211.384,650.299,211.384z"/>
			</g>
			<g>
				<rect x="503.561" y="277.937" style="fill:#0B004F;" width="5.768" height="111.609"/>
				<rect x="509.329" y="277.937" style="fill:#06002B;" width="53.982" height="111.609"/>
			</g>
			<g>
				<rect x="481.376" y="389.546" style="fill:#0B004F;" width="104.119" height="13.628"/>
				<rect x="495.124" y="389.546" style="fill:#06002B;" width="90.372" height="13.628"/>
			</g>
		</g>
		<g>
			<path style="fill:#0B004F;" d="M642.651,403.173h-3.717h-3.717h-3.717h-3.717h-3.717h-3.717h-3.717h-3.717h-3.717h-3.717h-3.717
				h-136.65h-3.717h-3.717h-3.717h-3.717h-3.717h-3.717h-3.717h-3.717h-3.717h-3.717h-3.717c-18.119,0-32.807,14.688-32.807,32.807
				v0c0,18.119,14.688,32.807,32.807,32.807h3.717h3.717h3.717h3.717h3.717h3.717h3.717h3.717h3.717h3.717h3.717h136.65h3.717h3.717
				h3.717h3.717h3.717h3.717h3.717h3.717h3.717h3.717h3.717c18.119,0,32.807-14.688,32.807-32.807v0
				C675.458,417.862,660.769,403.173,642.651,403.173z M465.111,450.389c-7.944,0-14.409-6.463-14.409-14.409
				s6.464-14.409,14.409-14.409h136.65c7.945,0,14.408,6.463,14.408,14.409s-6.463,14.409-14.408,14.409H465.111z"/>
			<path style="fill:#06002B;" d="M642.651,403.173h-177.54c-18.119,0-32.807,14.688-32.807,32.807l0,0
				c0,18.119,14.688,32.807,32.807,32.807h177.54c18.119,0,32.807-14.688,32.807-32.807l0,0
				C675.458,417.862,660.769,403.173,642.651,403.173z M642.651,450.389h-177.54c-7.944,0-14.409-6.463-14.409-14.409
				c0-7.945,6.464-14.409,14.409-14.409h177.54c7.945,0,14.408,6.463,14.408,14.409
				C657.059,443.926,650.596,450.389,642.651,450.389z"/>
			<rect x="468.646" y="427.122" style="fill:#0B004F;" width="40.683" height="23.267"/>
			<rect x="520.646" y="429.333" style="fill:#19386B;" width="6.134" height="6.134"/>
			<rect x="533.253" y="429.333" style="fill:#19386B;" width="6.134" height="6.134"/>
		</g>
		<g>
			<path style="fill:#19386B;" d="M583.979,458.5c-7.077,0-12.834-5.757-12.834-12.833v-10.199c0-0.828,0.672-1.5,1.5-1.5
				c0.828,0,1.5,0.672,1.5,1.5v10.199c0,5.422,4.411,9.833,9.834,9.833c5.422,0,9.833-4.411,9.833-9.833V341
				c0-0.828,0.672-1.5,1.5-1.5c0.828,0,1.5,0.672,1.5,1.5v104.667C596.813,452.743,591.056,458.5,583.979,458.5z"/>
		</g>
	</g>
	<g>
		<g>
			<rect x="138.167" y="69.001" style="fill:#0C1A40;" width="104.329" height="80.667"/>
			<g>
				<rect x="138.167" y="59" style="fill:#517CC2;" width="104.329" height="80.667"/>
				<path style="fill:#7096D6;" d="M242.496,102.727c-4.168-0.257-8.404-0.393-12.698-0.393c-37.847,0-71.314,10.248-91.631,25.944
					v11.389h104.329V102.727z"/>
				
					<rect x="167.998" y="65.169" transform="matrix(-1.836970e-16 1 -1 -1.836970e-16 289.6647 -90.9982)" style="fill:#7BC1ED;" width="44.667" height="68.328"/>
				
					<rect x="180.998" y="78.169" transform="matrix(-1.836970e-16 1 -1 -1.836970e-16 289.6647 -90.9982)" style="fill:#0C1A40;" width="18.667" height="42.328"/>
			</g>
		</g>
		<g>
			<rect x="83.077" y="167.265" style="fill:#0C1A40;" width="51.945" height="53.086"/>
			<g>
				<rect x="83.077" y="160.684" style="fill:#517CC2;" width="51.945" height="53.086"/>
				<path style="fill:#7096D6;" d="M135.023,189.46c-2.076-0.169-4.184-0.259-6.322-0.259c-18.844,0-35.507,6.744-45.623,17.074
					v7.495h51.945V189.46z"/>
				
					<rect x="94.353" y="170.216" transform="matrix(-1.836970e-16 1 -1 -1.836970e-16 296.2765 78.1765)" style="fill:#7BC1ED;" width="29.395" height="34.021"/>
				
					<rect x="102.908" y="176.689" transform="matrix(-1.836970e-16 1 -1 -1.836970e-16 296.2765 78.1764)" style="fill:#0C1A40;" width="12.284" height="21.075"/>
			</g>
		</g>
	</g>
	<g>
		<path style="fill:#FD9A71;" d="M279.601,258.94c-1.774,2.791-3.549,5.583-5.323,8.374c4.037,2.338,8.601,3.573,13.107,4.784
			c1.028,0.276,2.208,0.53,3.088-0.069c0.622-0.423,0.927-1.176,1.115-1.904c0.947-3.662-0.328-9.065-3.267-11.647
			C286.077,256.507,281.293,256.279,279.601,258.94z"/>
		<path style="fill:#FFF954;" d="M252.611,259.52c-1.582-0.949-0.744-3.695,0.994-4.311c1.739-0.616,3.643,0.197,5.231,1.136
			c-0.073-1.941,1.726-3.744,3.667-3.675c1.941,0.069,3.608,1.995,3.397,3.926c0.641-1.177,2.194-1.763,3.453-1.303
			s2.068,1.909,1.799,3.223c0.994-1.488,3.23-1.869,4.775-0.965s2.318,2.858,2.028,4.624c0.855-1.43,2.703-2.184,4.315-1.761
			c1.612,0.424,2.85,1.989,2.891,3.655c0.502-1.281,2.005-2.08,3.348-1.781s2.364,1.661,2.274,3.034
			c1.061-1.14,3.037-1.044,4.239-0.053c1.202,0.99,1.705,2.633,1.685,4.19c-0.041,3.124-1.957,6.006-4.474,7.855
			c-2.518,1.849-5.58,2.799-8.633,3.46c-3.49,0.755-7.144,1.17-10.615,0.332c-6.321-1.525-10.943-6.85-16.71-9.854
			c-1.576-0.821-3.263-1.483-4.623-2.626c-1.297-1.091-2.757-3.72-2.812-5.469C248.792,261.673,250.587,258.304,252.611,259.52z"/>
		<g>
			<path style="fill:#B84B61;" d="M365.16,346.262c-0.295-0.685-0.78-1.351-1.593-2.058c-2.058-1.79-4.864-2.996-7.41-4.063
				c-5.136-2.153-10.683-3.459-16.072-5.063c-9.074-2.702-18.404-6.884-22.048-15.441c-12.603,5.91-25.681,12.635-38.912,16.275
				c-9.497,2.612-19.516,3.318-28.05,0.257c-6.938-2.489-12.799-7.742-15.151-14.774c-2.254-6.739,2.88-11.092,7.022-16.42
				c3.812-4.903,8.601-8.15,13.89-3.913c2.574,2.062,4.449,5.455,7.962,5.59c1.421,0.054,2.878-0.466,4.292-0.964
				c19.546-6.881,38.936-10.887,58.546-9.847c1.687,0.09,3.388,0.233,4.901,0.819c2.159,0.836,3.778,2.507,5.342,4.139
				c12.751,13.315,25.502,26.631,38.253,39.946c2.724,2.844,6.12,5.123,9.918,6.518c1.96,0.72,4.078,1.272,6.254,1.381
				c2.958,0.148,7.024-1.885,5.876,2.832c-0.887,3.642-5.654,5.677-8.816,5.467c-4.604-0.305-8.563-1.925-13.273-2.01
				c-2.781-0.051-5.524-0.33-8.193-0.835c-0.566-0.107-1.159-0.241-1.529-0.648c-0.334-0.368-0.431-0.901-0.503-1.415
				C365.513,349.509,365.836,347.833,365.16,346.262z"/>
			<path style="fill:#271745;" d="M269.089,305.688c-1.414,0.498-2.87,1.018-4.292,0.964c-3.513-0.135-5.388-3.528-7.962-5.59
				c-5.289-4.237-10.078-0.991-13.89,3.913c-4.142,5.328-9.276,9.681-7.022,16.42c2.352,7.032,8.213,12.285,15.151,14.774
				c8.534,3.061,18.553,2.355,28.05-0.257c5.255-1.445,10.484-3.381,15.671-5.556c-1.848-10.61-6.259-20.542-14.076-28.405
				C276.847,303.073,272.971,304.321,269.089,305.688z"/>
			<path style="fill:#FD9A71;" d="M374.657,349.744c-0.419-0.673-1.025-1.319-1.969-1.996c-2.387-1.713-5.418-2.818-8.164-3.793
				c-5.54-1.969-11.339-3.078-17.033-4.491c-9.588-2.379-19.701-6.225-24.897-14.628c-11.578,6.325-23.485,13.48-36.102,17.564
				c-9.056,2.931-18.979,3.981-28.09,1.225c-7.408-2.241-14.233-7.274-17.858-14.201c-3.474-6.639,0.891-11.154,4.087-16.607
				c2.94-5.018,7.16-8.42,13.228-4.379c2.953,1.966,5.445,5.283,8.993,5.296c1.436,0.005,2.803-0.564,4.132-1.108
				c18.368-7.533,37.096-12.195,56.954-11.836c1.708,0.031,3.44,0.115,5.064,0.647c2.316,0.759,4.241,2.368,6.103,3.941
				c15.188,12.83,30.376,25.66,45.564,38.49c3.244,2.741,7.061,4.895,11.122,6.153c2.096,0.649,4.32,1.127,6.522,1.16
				c2.994,0.045,6.706-2.121,6.404,2.619c-0.233,3.66-4.649,5.853-7.859,5.753c-4.674-0.145-8.936-1.623-13.676-1.545
				c-2.798,0.046-5.601-0.138-8.369-0.549c-0.587-0.087-1.206-0.2-1.65-0.593c-0.401-0.355-0.595-0.883-0.759-1.393
				C375.595,352.968,375.617,351.287,374.657,349.744z"/>
			<g>
				<path style="fill:#FFF35B;" d="M255.089,308.889c2.953,1.966,5.445,5.283,8.993,5.296c0.842,0.003,1.658-0.2,2.459-0.471
					c-3.383-0.199-5.816-3.369-8.681-5.277c-2.912-1.939-5.394-2.152-7.518-1.307C251.784,307.207,253.359,307.737,255.089,308.889z
					"/>
				<path style="fill:#FFF35B;" d="M402.312,351.181c-2.203-0.033-4.426-0.511-6.522-1.16c-4.061-1.259-7.878-3.413-11.122-6.153
					c-15.188-12.83-30.376-25.66-45.564-38.49c-1.862-1.573-3.787-3.182-6.103-3.941c-1.623-0.532-3.356-0.617-5.064-0.647
					c-7.96-0.144-15.737,0.531-23.384,1.862c6.754-1.027,13.613-1.537,20.614-1.41c1.708,0.031,3.44,0.116,5.064,0.647
					c2.316,0.759,4.241,2.368,6.103,3.941c15.188,12.83,30.376,25.66,45.564,38.49c3.244,2.741,7.061,4.895,11.123,6.153
					c2.096,0.65,4.32,1.127,6.522,1.16c2.994,0.045,6.706-2.121,6.404,2.619c-0.167,2.624-2.485,4.488-4.966,5.3
					c3.199,0.042,7.506-2.137,7.736-5.752C409.018,349.059,405.306,351.225,402.312,351.181z"/>
			</g>
			<path style="fill:#401F5E;" d="M285.266,307.415c-4.794,1.523-9.551,3.269-14.283,5.21c-1.328,0.545-2.696,1.114-4.132,1.108
				c-3.548-0.013-6.039-3.329-8.993-5.296c-6.069-4.041-10.288-0.639-13.228,4.379c-3.195,5.453-7.561,9.969-4.087,16.607
				c3.625,6.927,10.45,11.961,17.858,14.201c11.788,3.505,23.668-0.375,35.543-1.095c2.817-0.171,5.715-0.362,8.259-1.584
				c-2.155-6.205-2.91-12.633-5.833-18.534C293.595,316.809,289.773,311.74,285.266,307.415z"/>
			<g>
				<path style="fill:#FD9A71;" d="M246.368,272.851c0.358,0.119,9.899,11.769,9.899,11.769l-8.216,5.265l-9.077-14.159
					L246.368,272.851z"/>
				<path style="fill:#C910B7;" d="M222.106,247.188c0,0,9.662,0.181,15.391,6.382c5.73,6.202,12.545,17.844,11.364,19.974
					c-1.181,2.129-6.601,7.182-14.38,6.739C233.295,280.216,218.499,257.098,222.106,247.188z"/>
				<path style="fill:#FFF35B;" d="M237.497,253.57c-2.982-3.228-7.028-4.823-10.224-5.612c2.675,1.084,5.445,2.707,7.689,5.135
					c5.757,6.231,12.469,17.254,13.127,21.524c0.337-0.4,0.603-0.769,0.772-1.074C250.042,271.415,243.227,259.772,237.497,253.57z"
					/>
			</g>
			<g>
				<path style="fill:#2A1B36;" d="M186.639,198.102c-3.734,1.944-6.2,5.687-7.908,9.534c-1.807,4.072-2.959,8.593-2.211,12.985
					c0.502,2.948,1.829,5.683,2.691,8.546c1.308,4.343,1.529,9.009,0.638,13.457c-0.839,4.189-2.65,8.431-1.632,12.579
					c0.821,3.345,3.397,6.018,6.303,7.867c0.676,0.43,1.416,0.87,1.744,1.601c0.374,0.836,0.085,1.85-0.484,2.568
					c-0.569,0.718-1.374,1.203-2.161,1.672c2.262,0.87,4.831,0.706,7.122-0.084c2.291-0.79,4.337-2.167,6.218-3.694
					c4.663-3.785,8.692-9.186,8.399-15.184c-0.12-2.458-0.961-4.937-0.396-7.333c0.424-1.796,1.589-3.309,2.519-4.903
					c2.564-4.396,3.401-9.769,2.295-14.736c-1.371-6.159-5.497-11.359-7.404-17.374c-1.029-3.243-1.681-5.692-4.974-6.947
					C193.694,197.246,190.457,196.115,186.639,198.102z"/>
				<path style="fill:#201429;" d="M202.371,205.605c-1.002-3.159-1.666-5.555-4.741-6.838c-2.287-0.281-4.649,0.016-6.233,0.899
					c-4.376,2.44-7.208,7.867-8.42,12.583c-1.073,4.173-0.879,8.729,0.926,12.642c1.122,2.431,2.849,4.622,3.422,7.238
					c0.481,2.194,0.102,4.499,0.498,6.71c0.328,1.829,1.173,3.519,2.008,5.179c0.658,1.308,1.344,2.653,2.458,3.603
					c1.253,1.068,2.904,1.517,4.377,2.253c2.582,1.29,4.773,3.538,7.627,3.968c0.22,0.033,0.43,0.049,0.638,0.062
					c0.331-1.28,0.495-2.601,0.429-3.953c-0.12-2.458-0.961-4.937-0.396-7.333c0.424-1.796,1.589-3.309,2.519-4.903
					c2.564-4.396,3.401-9.769,2.295-14.736C208.404,216.82,204.279,211.619,202.371,205.605z"/>
				<g>
					<path style="fill:#FFF35B;" d="M178.089,211.469c1.897-4.276,4.638-8.435,8.787-10.595c4.242-2.209,7.84-0.951,11.955,0.617
						c1.207,0.46,2.09,1.066,2.779,1.799c-0.77-2.098-1.757-3.698-4.212-4.633c-3.703-1.411-6.941-2.543-10.758-0.555
						c-3.734,1.944-6.2,5.687-7.908,9.534c-1.2,2.703-2.096,5.605-2.354,8.535C176.835,214.565,177.415,212.988,178.089,211.469z"/>
				</g>
			</g>
			<path style="fill:#EA4FFF;" d="M241.886,275.958c0.558-4.443,0.965-10.74-0.744-13.201c-2.164-3.116-7.528-6.028-9.753-7.145
				c-0.295-0.7-0.581-1.397-0.854-2.086c-1.163-2.945-14.709-9.731-14.709-9.731s-15.338,6.831-14.647,16.276
				c0.801,10.963,4.112,22.228,7.998,32.44c5.91,15.532,17.299,28.281,27.029,41.579c0.736,1.007,1.536,2.063,2.698,2.515
				c1.133,0.44,2.409,0.224,3.582-0.094c6.359-1.722,11.692-6.204,15.649-11.471c3.957-5.268,6.697-11.329,9.405-17.335
				c0.307-0.681,0.618-1.456,0.342-2.151c-1.704-4.29-10.716-6.343-13.74-10.452c-2.031-2.76-3.863-5.699-5.72-8.576
				C247.144,284.547,241.609,278.175,241.886,275.958z"/>
			<g>
				<path style="fill:#FD9A71;" d="M207.988,238.423l1.453,12.392c0,0,3.709,3.579,7.774-0.329l-1.165-12.404L207.988,238.423z"/>
				<path style="fill:#B84B61;" d="M208.979,246.872c2.496,0.248,4.963,0.244,7.213,0.032c0.227-0.021,0.452-0.061,0.679-0.089
					l-0.821-8.732l-8.062,0.341L208.979,246.872z"/>
			</g>
			<g>
				<g>
					<path style="fill:#FD9A71;" d="M233.046,218.452c-0.008,0.857-0.051,1.714-0.111,2.56c-0.328,4.566-0.628,8.599,0.414,13.07
						c0.805,3.454,0.197,6.314-2.893,8.374c-3.509,2.339-7.718,3.469-11.923,3.369c-6.616-0.157-14.995-2.445-19.547-7.618
						c-8.548-9.714-4.249-28.426,7.178-34.025c4.359-2.136,9.486-2.467,14.149-1.212c4.128,1.111,8.897,3.346,11.033,7.245
						C232.712,212.707,233.073,215.581,233.046,218.452z"/>
					<g style="opacity:0.36;">
						
							<radialGradient id="SVGID_1_" cx="162.9959" cy="227.0785" r="7.0288" gradientTransform="matrix(0.9905 0.1375 -0.089 0.6411 68.1631 65.699)" gradientUnits="userSpaceOnUse">
							<stop  offset="0" style="stop-color:#B02057"/>
							<stop  offset="1" style="stop-color:#B02054;stop-opacity:0"/>
						</radialGradient>
						<path style="opacity:0.4;fill:url(#SVGID_1_);" d="M216.808,234.244c-0.166,2.293-3.616,3.911-7.707,3.615
							c-4.091-0.296-7.273-2.394-7.107-4.686c0.166-2.293,3.616-3.911,7.707-3.616C213.792,229.853,216.974,231.951,216.808,234.244
							z"/>
						
							<radialGradient id="SVGID_00000008112300032363808200000009329269761066267067_" cx="222.0178" cy="224.3002" r="6.1276" gradientTransform="matrix(0.9974 0.0721 -0.0416 0.5753 20.1748 90.4736)" gradientUnits="userSpaceOnUse">
							<stop  offset="0" style="stop-color:#B02057"/>
							<stop  offset="1" style="stop-color:#B02054;stop-opacity:0"/>
						</radialGradient>
						<path style="opacity:0.4;fill:url(#SVGID_00000008112300032363808200000009329269761066267067_);" d="M232.858,231.241
							c-3.937-0.182-7.2,1.404-7.361,3.631c-0.166,2.293,3.016,4.391,7.107,4.687c0.146,0.011,0.289,0.013,0.434,0.019
							c0.751-1.594,0.79-3.436,0.31-5.495C233.124,233.117,232.971,232.175,232.858,231.241z"/>
					</g>
					<path style="fill:#FFF35B;" d="M231.347,210.215c-2.136-3.899-6.905-6.134-11.033-7.245c-3.667-0.987-7.615-0.976-11.256,0.105
						c3.252-0.714,6.682-0.623,9.897,0.242c4.128,1.111,8.898,3.346,11.033,7.245c1.365,2.492,1.726,5.367,1.699,8.237
						c-0.008,0.857-0.051,1.714-0.111,2.56c-0.328,4.566-0.628,8.599,0.414,13.07c0.805,3.453,0.197,6.314-2.893,8.374
						c-1.673,1.115-3.508,1.947-5.423,2.51c2.406-0.535,4.717-1.481,6.782-2.857c3.089-2.06,3.698-4.921,2.893-8.374
						c-1.043-4.471-0.742-8.504-0.414-13.07c0.061-0.846,0.103-1.703,0.111-2.56C233.073,215.581,232.712,212.707,231.347,210.215z"
						/>
				</g>
				<g>
					<path style="fill:#2A1B36;" d="M232.35,217.814c-1.89-1.459-5.789-1.381-7.739-0.115c-0.472,0.306-0.379,0.993,0.21,1.079
						c1.991,0.293,4.523-0.34,6.306,0.819C232.302,220.361,233.447,218.66,232.35,217.814z"/>
					<path style="fill:#2A1B36;" d="M214.107,215.745c-3.687-2.28-9.615-1.889-13.401-0.016c-1.203,0.595-0.31,2.37,0.914,1.859
						c2.187-0.913,4.31-1.262,6.671-1.184c1.895,0.062,3.779,0.491,5.656,0.124C214.3,216.459,214.429,215.944,214.107,215.745z"/>
				</g>
				<g>
					<path style="fill:#FFFFFF;" d="M210.444,220.899c-1.765-0.527-3.88-0.202-5.35,0.822c-1.536,1.07-3.596,3.747-1.593,5.165
						c1.14,0.807,2.916,1.047,4.271,1.2c1.64,0.185,3.929,0.354,5.397-0.541c1.243-0.758,1.508-2.191,0.959-3.481
						C213.479,222.539,212.015,221.368,210.444,220.899z"/>
					<path style="fill:#2A1B36;" d="M212.809,227.722c0.433-1.04,0.625-2.303,0.483-3.642c-0.065-0.609-0.194-1.189-0.376-1.728
						c-0.699-0.672-1.565-1.182-2.472-1.452c-1.611-0.481-3.507-0.245-4.944,0.576c-0.385,1.007-0.551,2.208-0.417,3.477
						c0.113,1.067,0.426,2.042,0.872,2.863c0.628,0.126,1.258,0.207,1.817,0.27C209.286,228.257,211.345,228.403,212.809,227.722z"
						/>
					<path d="M214.134,226.264c0.203-0.76,0.03-1.55-0.346-2.194c-0.376-0.661-0.915-1.212-1.527-1.635
						c-1.22-0.873-2.724-1.16-4.178-1.026c-0.719,0.079-1.417,0.284-1.98,0.619c-0.288,0.162-0.529,0.328-0.779,0.534
						c-0.251,0.209-0.509,0.441-0.749,0.69c-0.491,0.49-0.922,1.055-1.19,1.635c-0.26,0.574-0.326,1.209,0.173,1.917l-0.116,0.163
						c-0.427-0.12-0.841-0.418-1.113-0.864c-0.259-0.448-0.359-0.994-0.32-1.491c0.066-1.013,0.5-1.878,1.029-2.636
						c0.278-0.373,0.59-0.722,0.965-1.028c0.375-0.311,0.834-0.566,1.284-0.736c0.916-0.334,1.842-0.433,2.738-0.415
						c0.898,0.014,1.78,0.169,2.623,0.462c0.851,0.312,1.613,0.796,2.255,1.396c0.635,0.607,1.147,1.342,1.45,2.154
						c0.322,0.808,0.349,1.76-0.032,2.525L214.134,226.264z"/>
					<path style="fill:#FFFFFF;" d="M229.234,222.139c-1.244-0.365-2.727,0.088-3.752,1.144c-1.07,1.104-2.495,3.74-1.077,4.916
						c0.808,0.669,2.057,0.767,3.01,0.813c1.154,0.055,2.763,0.051,3.787-0.887c0.867-0.793,1.041-2.145,0.645-3.305
						C231.38,223.449,230.342,222.464,229.234,222.139z"/>
					<path style="fill:#2A1B36;" d="M229.234,222.139c-1.244-0.365-2.727,0.088-3.752,1.144c-0.318,0.328-0.666,0.792-0.962,1.311
						c-0.008,0.427,0.008,0.867,0.056,1.317c0.107,1.009,0.348,1.943,0.682,2.744c0.7,0.255,1.497,0.324,2.158,0.356
						c0.983,0.047,2.292,0.045,3.293-0.534c0.229-0.949,0.303-2.062,0.179-3.237c-0.1-0.943-0.32-1.818-0.62-2.583
						C229.94,222.425,229.592,222.244,229.234,222.139z"/>
					<path d="M223.719,226.6c-0.015-0.634,0.148-1.262,0.383-1.848c0.238-0.589,0.538-1.151,0.938-1.68
						c0.844-1.104,2.264-1.704,3.659-1.718c0.708-0.015,1.408,0.127,2.125,0.355c0.359,0.112,0.719,0.272,1.026,0.515
						c0.303,0.245,0.559,0.559,0.737,0.915c0.087,0.179,0.163,0.362,0.212,0.554c0.057,0.19,0.122,0.395,0.154,0.595
						c0.062,0.405,0.028,0.798-0.05,1.151c-0.181,0.709-0.535,1.266-0.959,1.755l-0.187-0.071c0-0.642,0.036-1.251-0.073-1.757
						c-0.522-2.621-4.092-3.385-5.951-1.663c-0.818,0.758-1.538,1.77-1.813,2.912L223.719,226.6z"/>
				</g>
				
					<linearGradient id="SVGID_00000181060024174422718440000002374211232870634151_" gradientUnits="userSpaceOnUse" x1="209.8679" y1="223.2796" x2="209.8679" y2="218.9145" gradientTransform="matrix(0.9978 0.0669 -0.0669 0.9978 27.0563 -3.0229)">
					<stop  offset="0" style="stop-color:#B02054;stop-opacity:0"/>
					<stop  offset="1" style="stop-color:#B02057"/>
				</linearGradient>
				<path style="fill:url(#SVGID_00000181060024174422718440000002374211232870634151_);" d="M218.135,231.104
					c-0.608,0.679-0.841,1.515-0.116,2.319c0.447,0.495,1.107,0.74,1.756,0.894c1.462,0.347,3.806,0.555,5.084-0.415
					c1.909-1.45,0.075-3.781-1.651-4.24C221.536,229.217,219.302,229.801,218.135,231.104z"/>
				<path style="fill:#2A1B36;" d="M198.388,212.808c0.556-1.168,1.271-2.25,2.187-3.209c3.046-3.187,8.092-4.27,12.177-2.612
					c1.295,0.526,2.49,1.296,3.825,1.71c2.209,0.686,4.543,0.281,6.508-0.89c2.027-1.208,4.343-0.655,6.092,0.774
					c1.418,1.159,2.391,2.574,2.985,4.261c0.087,0.247,0.452,0.203,0.499-0.055c0.376-2.048,0.013-4.116-0.743-6.087
					c-4.387-11.438-21.307-14.076-31.377-9.606c-5.223,2.318-10.044,6.279-12.241,11.676c-2.479,6.088-2.817,12.45-0.752,18.749
					c1.998,6.093,5.943,11.612,11.801,14.376c1.414,0.667,2.96,1.229,4.51,1.022c-1.752-2.658-4.537-4.465-6.282-7.122
					c-1.575-2.4-2.058-6.34-2.169-9.159c-0.008-0.203,0.013-0.451,0.197-0.537c0.128-0.06,0.276-0.01,0.414,0.018
					c0.975,0.2,1.843-0.809,1.941-1.8c0.098-0.991-0.314-1.95-0.6-2.903C196.434,218.334,197.038,215.643,198.388,212.808z"/>
				<g>
					<path style="fill:#FD9A71;" d="M190.897,225.242c-0.862,0.488-1.501,1.243-1.517,2.246c-0.028,1.696,0.917,3.726,1.946,5.176
						c0.847,1.194,2.047,2.228,3.455,2.688c1.408,0.46,3.024,0.265,3.977-0.672c1.669-1.642,0.913-5.258-0.53-7.182
						c-1.165-1.552-3.186-3.059-5.211-2.891C192.296,224.666,191.535,224.88,190.897,225.242z"/>
					
						<linearGradient id="SVGID_00000124858640340197045090000005682593871408683150_" gradientUnits="userSpaceOnUse" x1="126.8634" y1="222.9598" x2="122.8056" y2="215.8339" gradientTransform="matrix(0.9802 -0.1984 0.1984 0.9802 26.4031 36.9656)">
						<stop  offset="0" style="stop-color:#B02054;stop-opacity:0"/>
						<stop  offset="1" style="stop-color:#B02057"/>
					</linearGradient>
					<path style="fill:url(#SVGID_00000124858640340197045090000005682593871408683150_);" d="M190.897,225.242
						c-0.862,0.488-1.501,1.243-1.517,2.246c-0.028,1.696,0.917,3.726,1.946,5.176c0.847,1.194,2.047,2.228,3.455,2.688
						c1.408,0.46,3.024,0.265,3.977-0.672c1.669-1.642,0.913-5.258-0.53-7.182c-1.165-1.552-3.186-3.059-5.211-2.891
						C192.296,224.666,191.535,224.88,190.897,225.242z"/>
				</g>
				<g>
					<path style="fill:#CF3A53;" d="M222.612,236.264c-1.255-0.133-2.529-0.167-3.773,0.04c-1.651,0.274-3.239,0.967-4.913,0.982
						c1.014,0.635,2.074,1.197,3.168,1.681c0.591,0.261,1.201,0.502,1.842,0.574c0.726,0.082,1.457-0.055,2.174-0.192
						c0.878-0.167,3.032-0.144,3.54-1.026C225.406,237.011,223.53,236.348,222.612,236.264z"/>
					<path style="fill:#9E3348;" d="M225.544,237.947c-3.614,0.758-7.162,0.979-10.518-0.793c0.031-0.098,0.069-0.194,0.088-0.297
						c0.056-0.296-0.189-0.661-0.525-0.609c-1.109,0.173-1.697,1.314-1.913,2.327c-0.228,1.071,1.428,1.42,1.662,0.352
						c0.012-0.055,0.036-0.106,0.051-0.16c1.933,0.89,3.99,1.333,6.131,1.225c1.695-0.085,4.169-0.236,5.298-1.635
						C225.989,238.146,225.787,237.896,225.544,237.947z"/>
				</g>
				<path style="fill:#FFF35B;" d="M232.784,210.421c-0.087-1.259-0.402-2.508-0.867-3.721
					c-4.135-10.781-19.401-13.74-29.574-10.303C214.358,195.565,225.799,201.024,232.784,210.421z"/>
			</g>
			<path style="fill:#ED28ED;" d="M233.03,299.607c-2.844-2.536-5.71-5.319-6.91-8.935c-3.238-9.759,6.5-9.494,11.288-14.061
				c2.265-2.161,2.242-5.719,2.059-8.844c-0.059-1.003-0.293-2.24-1.258-2.52c-0.389-0.113-0.804-0.028-1.2,0.058
				c-1.994,0.431-3.988,0.862-5.982,1.294c-1.651,0.357-3.327,0.716-5.012,0.605c-2.897-0.19-5.564-1.773-7.606-3.837
				c-2.041-2.065-3.539-4.594-4.976-7.116c-1.074-1.884-2.156-3.817-3.772-5.263c-0.768-0.688-1.69-1.243-2.667-1.579
				c-0.173,0.148-0.345,0.3-0.515,0.453c-0.043,0.038-0.086,0.076-0.129,0.115c-0.152,0.139-0.303,0.28-0.452,0.422
				c-0.059,0.057-0.119,0.113-0.177,0.17c-0.138,0.134-0.275,0.271-0.409,0.408c-0.068,0.069-0.135,0.139-0.202,0.209
				c-0.126,0.132-0.251,0.265-0.373,0.399c-0.073,0.08-0.143,0.161-0.214,0.242c-0.115,0.131-0.23,0.262-0.341,0.395
				c-0.074,0.089-0.145,0.18-0.217,0.27c-0.104,0.13-0.209,0.258-0.309,0.39c-0.082,0.108-0.158,0.218-0.236,0.327
				c-0.139,0.193-0.273,0.387-0.401,0.584c-0.097,0.148-0.195,0.296-0.285,0.447c-0.062,0.103-0.118,0.208-0.177,0.313
				c-0.079,0.139-0.158,0.278-0.231,0.419c-0.056,0.107-0.106,0.216-0.158,0.324c-0.068,0.141-0.135,0.283-0.197,0.426
				c-0.048,0.11-0.091,0.221-0.135,0.332c-0.057,0.145-0.112,0.291-0.162,0.438c-0.038,0.111-0.074,0.223-0.108,0.335
				c-0.046,0.151-0.088,0.304-0.126,0.458c-0.028,0.11-0.055,0.22-0.079,0.331c-0.034,0.161-0.062,0.323-0.087,0.486
				c-0.017,0.106-0.036,0.212-0.048,0.319c-0.022,0.181-0.034,0.363-0.044,0.546c-0.005,0.091-0.015,0.181-0.017,0.272
				c-0.007,0.275-0.003,0.552,0.018,0.832v0c0.095,1.295,0.225,2.595,0.388,3.895c0,0.003,0.001,0.007,0.001,0.01
				c1.144,9.121,3.879,18.32,6.975,26.829c2.03,5.581,4.925,10.448,7.585,15.589c5.935,9.692,13.397,18.564,20.077,27.695
				c0.736,1.007,1.536,2.063,2.698,2.515c1.133,0.441,2.409,0.224,3.583-0.094c6.359-1.722,11.692-6.204,15.649-11.471
				c1.15-1.53,2.188-3.133,3.161-4.777C251.24,314.305,241.753,307.388,233.03,299.607z"/>
		</g>
		<g>
			<path style="fill:#66173D;" d="M250.682,264.502l-0.091,51.949c-4.043-1.518-6.601-3.313-6.668-5.035l-1.807-46.756
				c-0.101-2.606,2.131-4.697,4.725-4.427h0C249.027,260.461,250.686,262.305,250.682,264.502z"/>
			<path style="fill:#FFFFFF;" d="M259.281,265.573l-2.242,52.768c-2.408-0.551-4.587-1.196-6.448-1.89l0.09-51.071
				c0.005-2.539,2.203-4.517,4.729-4.254l0.036,0.004C257.697,261.365,259.377,263.311,259.281,265.573z"/>
			<path style="fill:#8C1F41;" d="M267.866,266.644l-4.419,52.873c-2.268-0.32-4.416-0.717-6.408-1.176l2.22-52.241
				c0.105-2.467,2.268-4.336,4.725-4.079l0.057,0.006C266.36,262.268,268.06,264.32,267.866,266.644z"/>
			<path style="fill:#FFFFFF;" d="M276.436,267.714l-6.56,52.473c-1.051-0.068-2.129-0.159-3.221-0.273s-2.166-0.247-3.208-0.397
				l4.405-52.698c0.2-2.392,2.326-4.153,4.714-3.904l0.064,0.007C275.017,263.171,276.734,265.332,276.436,267.714z"/>
			<path style="fill:#8C1F41;" d="M284.992,268.783l-8.604,51.576c-2.043,0.039-4.228-0.016-6.513-0.171l6.582-52.647
				c0.289-2.314,2.376-3.972,4.695-3.73l0.057,0.006C283.667,264.072,285.398,266.347,284.992,268.783z"/>
			<path style="fill:#FFFFFF;" d="M293.534,269.848l-10.447,49.991c-1.964,0.295-4.224,0.477-6.699,0.519l8.69-52.096
				c0.372-2.233,2.418-3.791,4.67-3.556l0.036,0.004C292.31,264.974,294.054,267.363,293.534,269.848z"/>
			<path style="fill:#8C1F41;" d="M298.352,265.603c2.594,0.27,4.347,2.777,3.711,5.306l-11.412,45.378
				c-0.42,1.672-3.286,2.896-7.563,3.552l10.626-50.851C294.163,266.838,296.167,265.376,298.352,265.603L298.352,265.603z"/>
			<path style="fill:#66173D;" d="M258.704,279.147l-1.665,39.194c1.991,0.46,4.14,0.856,6.408,1.176l2.372-28.375
				C262.865,287.496,260.404,283.478,258.704,279.147z"/>
			<path style="fill:#BABABA;" d="M257.039,318.341l1.665-39.194c-0.525-1.338-0.986-2.702-1.357-4.098
				c-0.865-3.257-1.24-6.648-1.099-10.015c0.051-1.202,0.184-2.4,0.369-3.59c-0.37-0.151-0.757-0.27-1.173-0.314l-0.036-0.004
				c-2.525-0.263-4.724,1.715-4.729,4.254l-0.09,51.071C252.451,317.145,254.631,317.79,257.039,318.341z"/>
			<path style="fill:#BABABA;" d="M265.818,291.142l-2.372,28.375c1.043,0.15,2.116,0.283,3.208,0.397s2.17,0.205,3.221,0.273
				l2.747-21.975c-0.087-0.077-0.178-0.148-0.265-0.225C270.012,295.888,267.807,293.597,265.818,291.142z"/>
			<path style="fill:#BABABA;" d="M276.388,320.358c2.475-0.042,4.736-0.224,6.699-0.519l2.549-12.196
				c-2.19-1.34-4.335-2.746-6.421-4.23L276.388,320.358z"/>
			<path style="fill:#66173D;" d="M269.876,320.188c2.285,0.155,4.469,0.21,6.513,0.171l2.827-16.946
				c-2.282-1.624-4.493-3.341-6.592-5.2L269.876,320.188z"/>
			<path style="fill:#66173D;" d="M290.65,316.287l1.255-4.991c-2.113-1.178-4.207-2.391-6.27-3.653l-2.549,12.196
				C287.364,319.184,290.23,317.959,290.65,316.287z"/>
		</g>
		<g>
			<g>
				<path style="fill:#FD9A71;" d="M266.92,276.469c-1.175-2.576-5.724,0.636-5.724,0.636s-2.544-3.561-4.134-0.477
					c-1.32,2.56-1.272,7.992-1.272,7.992s-13.53,0.465-31.468,8.598l-6.445-13.728l-11.223,4.452c0,0,5.206,21.149,14.052,22.898
					c8.846,1.749,35.72-18.812,35.72-18.812s9.7-0.906,12.633-2.655C271.992,283.624,268.096,279.044,266.92,276.469z"/>
				<path style="fill:#B84B61;" d="M269.059,285.374c2.933-1.749-0.963-6.329-2.138-8.905c-0.159-0.348-0.383-0.583-0.645-0.742
					c-0.304,0.192-0.599,0.398-0.872,0.632c-2.178,1.866-3.337,4.661-5.318,6.734c-2.399,2.511-5.791,3.766-9.058,4.942
					c-7.842,2.822-15.756,5.662-24.016,6.769c-0.971,0.13-2.182,0.122-2.655-0.736c-0.192-0.348-0.207-0.762-0.218-1.159
					c-0.001-0.027,0.001-0.055,0-0.082l-6.261-13.336l-11.223,4.452c0,0,5.206,21.149,14.052,22.898
					c8.846,1.749,35.72-18.812,35.72-18.812S266.125,287.123,269.059,285.374z"/>
				<g>
					<path style="fill:#FFF35B;" d="M225.207,294.595c14.048-5.993,25.347-7.775,30.166-8.294c1.414-0.152,2.514-1.288,2.609-2.708
						c0.135-2.017,0.476-4.785,1.339-6.458c0.271-0.526,0.568-0.863,0.875-1.084c-0.885-0.73-2.18-1.274-3.135,0.577
						c-1.32,2.56-1.272,7.992-1.272,7.992s-13.53,0.465-31.468,8.598l-6.445-13.728l-2.431,0.964l5.959,12.694
						C222.074,294.574,223.757,295.213,225.207,294.595z"/>
				</g>
			</g>
			<g>
				<path style="fill:#C910B7;" d="M204.679,251.648c0,0,4.988,0.431,8.967,7.219c3.98,6.788,10.953,24.757,12.316,27.46
					c1.363,2.703-12.127,11.919-19.627,8.269C203.395,293.165,190.116,260.567,204.679,251.648z"/>
				<path style="fill:#A10B73;" d="M225.962,286.328c-0.221-0.438-0.59-1.28-1.068-2.406c-1.331-0.016-2.662,0.033-3.986,0.167
					c-2.121,0.215-4.367,0.603-6.306-0.284c-0.962-0.44-1.764-1.163-2.523-1.901c-3.617-3.513-6.695-7.681-8.381-12.434
					c-1.161-3.274-1.626-6.831-1.168-10.284c0.205-1.545,0.598-3.064,1.187-4.507c0.359-0.88,1.417-2.119,0.053-2.391
					c-13.055,9.72-0.31,40.908,2.566,42.308C213.836,298.246,227.326,289.031,225.962,286.328z"/>
				<path style="fill:#FFF35B;" d="M225.962,286.328c-1.363-2.703-8.337-20.672-12.316-27.46c-2.889-4.928-6.3-6.5-7.957-6.994
					c1.542,1.197,3.229,2.965,4.782,5.613c4.441,7.575,12.223,27.626,13.744,30.642c0.226,0.448,0.079,1.058-0.35,1.756
					C225.484,288.465,226.361,287.118,225.962,286.328z"/>
			</g>
		</g>
	</g>
	<g>
		<path style="fill:#FA942D;" d="M201.001,285.921l-12.041-0.572c-1.934-9.807-3.37-30.265-2.499-32.539
			c1.065-2.777,2.29-5.269,3.689-7.313c3.259-0.486,5.634,3.66,6.789,6.146c3.662,7.88,2.463,10.102,3.196,18.608
			C200.394,273.245,200.928,282.931,201.001,285.921z"/>
		<g>
			<path style="fill:#FC676B;" d="M289.909,429.354c0,0,3.675,18.194,5.8,17.49c2.125-0.705,35.085-9.095,34.326-11.384
				c-0.759-2.289-2.063-4.033-4.896-3.275c-2.833,0.758-24.345,1.542-24.345,1.542l-4.399-7.794L289.909,429.354z"/>
			<path style="fill:#FFF35B;" d="M325.14,432.185c-2.833,0.758-24.345,1.542-24.345,1.542l-4.399-7.794l-6.486,3.421
				c0,0,0.035,0.174,0.099,0.482l5.137-2.709l4.399,7.794c0,0,21.512-0.784,24.345-1.542c2.82-0.755,4.125,0.971,4.885,3.245
				c0.887-0.469,1.359-0.867,1.261-1.163C329.277,433.172,327.973,431.427,325.14,432.185z"/>
			<path style="fill:#16204D;" d="M237.841,327.527c0,0,36.303,9.452,40.362,17.702c4.059,8.25,21.293,84.048,21.293,84.048
				l-11.74,2.1c0,0-25.24-46.898-31.242-70.398c0,0-69.673-3.021-80.423-17.702L237.841,327.527z"/>
			<path style="fill:#0C1333;" d="M273.714,384.109c-3.201-7.348-7.34-15.192-6.966-22.821c0.177-3.616,1.368-7.184,4.152-10.628
				c1.944-2.405,4.265-4.445,6.665-6.406c-6.226-8.002-39.724-16.728-39.724-16.728l-61.75,15.75
				c10.75,14.681,80.423,17.702,80.423,17.702c6.002,23.5,31.242,70.398,31.242,70.398l3.643-0.652
				C284.501,415.67,280.351,399.344,273.714,384.109z"/>
			<path style="fill:#FFF35B;" d="M278.203,345.23c-4.059-8.25-40.362-17.702-40.362-17.702l-1.345,0.343
				c6.431,1.754,35.478,10.028,39.084,17.359c4.059,8.25,21.293,84.048,21.293,84.048l-9.346,1.672
				c0.148,0.276,0.229,0.428,0.229,0.428l11.74-2.1C299.495,429.277,282.261,353.48,278.203,345.23z"/>
		</g>
		<path style="fill:#FABB3C;" d="M171.865,237.114c0,0-16.624,4.752-19.255,10.154c-6.202,12.736,0.983,73.339,15.023,101.009
			c0,0,22.892-21.69,44.38-24.114c0,0-20.386-47.579-19.148-75.916C193.081,243.308,171.865,237.114,171.865,237.114z"/>
		<path style="fill:#FA942D;" d="M175.144,286.214c-5.323-2.529-8.91-7.88-10.493-13.556c-1.583-5.676-1.392-11.692-0.813-17.556
			c0.419-4.194,1.021-8.369,1.817-12.508c0.217-1.13,0.934-2.71,0.709-3.653c-5.094,1.871-12.122,4.974-13.755,8.328
			c-6.202,12.736,0.983,73.339,15.023,101.009c0,0,22.892-21.69,44.38-24.114c0,0-7.24-16.899-12.829-36.552
			c-0.292-0.012-0.582-0.043-0.874-0.048C190.495,287.429,182.205,289.569,175.144,286.214z"/>
		<path style="fill:#DB651A;" d="M212.014,324.163c0,0-0.091-0.214-0.254-0.601c-4.114,0.678-8.227,1.526-12.344,2.072
			c-9.282,1.231-19.759,0.518-26.415-6.068c-4.293-4.248-6.279-10.256-7.828-16.093c-1.756-6.613-3.138-13.324-4.142-20.092
			c-0.886-5.972-1.477-11.987-1.77-18.017c-0.159-3.271,1.349-11.268-2.793-12.699c-1.832-0.633-3.757-0.108-5.499,0.955
			c-2.775,20.185,4.274,70.24,16.664,94.657C167.634,348.277,190.525,326.587,212.014,324.163z"/>
		<g>
			<path style="fill:#FC676B;" d="M177.385,232.77v10.745c0,0-4.525,2.367-8.941,0l-0.81-10.745H177.385z"/>
			<path style="fill:#AB2E46;" d="M177.385,232.77h-9.751l0.541,7.182c1.633,0.665,3.321,1.115,5.005,1.348
				c1.377,0.19,2.781,0.206,4.205,0.065V232.77z"/>
		</g>
		<g>
			<path style="fill:#FC676B;" d="M292.035,323.33c0.137,0.057,0.273,0.119,0.406,0.186c1.199,0.607,2.212,1.732,2.353,3.069
				c0.805,7.6-8.485,7.753-13.62,7.721c-2.305-0.014-4.609-0.272-6.861-0.769c-0.779-0.172-1.572-0.381-2.223-0.842
				c-2.268-1.605-0.885-4.413,0.308-6.282c2.696-4.221,11.598-4.046,16.131-3.757C289.723,322.733,290.938,322.874,292.035,323.33z"
				/>
			<path style="fill:#FFF35B;" d="M294.794,326.585c-0.142-1.337-1.154-2.462-2.353-3.069c-0.133-0.068-0.269-0.129-0.406-0.186
				c-1.098-0.457-2.313-0.598-3.505-0.673c-2.379-0.152-5.959-0.265-9.217,0.265c2.552-0.2,5.086-0.108,6.911,0.009
				c1.193,0.076,2.408,0.217,3.505,0.674c0.137,0.057,0.273,0.119,0.406,0.186c1.199,0.607,2.212,1.732,2.353,3.069
				c0.514,4.846-3.079,6.663-7.081,7.335C290.198,333.832,295.406,332.355,294.794,326.585z"/>
			<path style="fill:#16204D;" d="M260.843,317.277c-13.099,1.108-34.237,5.882-48.829,6.886
				c-18.234,2.057-37.472,17.981-42.883,22.758c3.699,6.569,9.24,12.835,17.098,13.55c17.112,1.556,75.498-13.649,83.433-15.672
				C285.341,340.802,289.67,314.838,260.843,317.277z"/>
			<path style="fill:#0C1333;" d="M279.412,337.783c-2.202-1.147-5.03-1.566-7.561-1.591c-24.837-0.24-47.568,14.585-72.316,16.704
				c-4.24,0.363-9.061,0.123-11.93-3.019c-2.332-2.554-2.682-6.474-1.628-9.768s3.305-6.066,5.711-8.549
				c0.302-0.312,0.615-0.628,0.933-0.945c-10.9,5.631-20.028,13.249-23.49,16.307c3.699,6.569,9.24,12.835,17.098,13.55
				c17.112,1.556,75.498-13.649,83.433-15.672C273.878,343.724,277.262,341.055,279.412,337.783z"/>
			<path style="fill:#FFF35B;" d="M262.018,317.211c22.06,1.486,17.283,23.896,2.803,27.588
				c-7.24,1.846-56.466,14.661-78.037,15.713c17.775,1.197,75.025-13.711,82.878-15.713
				C285.12,340.858,289.522,315.586,262.018,317.211z"/>
		</g>
		<g>
			<path style="fill:#FC676B;" d="M164.216,233.066c3.186,1.532,6.662,2.446,10.088,2.903c3.412,0.455,6.917,0.346,10.49-0.381
				c3.178-0.646,7.562-1.84,9.878-4.502c2.168-2.491,2.952-5.77,3.32-9.025c0.703-6.225,1.407-12.451,2.11-18.676
				c0.641-5.671,1.709-12.517-1.203-17.632c-0.794-1.394-1.723-2.696-2.761-3.889c-4.502-5.172-11.056-8.28-17.733-8.255
				c-7.289,0.028-18.027,0.677-23.345,6.037c-3.6,3.629-6.809,8.887-6.921,14.121c-0.189,8.816,1.739,17.018,4.394,25.32
				c0.989,3.094,2.418,6.517,4.6,8.855C159.171,230.128,161.596,231.806,164.216,233.066z"/>
			<path style="fill:#FFF35B;" d="M198.899,185.753c-0.794-1.394-1.723-2.696-2.761-3.889c-0.746-0.857-1.552-1.65-2.401-2.389
				c0.491,0.476,0.968,0.968,1.42,1.487c1.038,1.193,1.967,2.495,2.761,3.889c2.913,5.115,1.844,11.961,1.203,17.632
				c-0.703,6.226-1.407,12.451-2.11,18.676c-0.368,3.255-1.152,6.534-3.32,9.025c-2.316,2.661-6.7,3.856-9.878,4.502
				c-3.573,0.726-7.077,0.836-10.49,0.381c-3.426-0.457-6.902-1.371-10.088-2.903c-1.865-0.897-3.623-2.017-5.221-3.369
				c1.847,1.765,3.944,3.185,6.203,4.272c3.186,1.532,6.662,2.446,10.088,2.903c3.412,0.455,6.917,0.346,10.49-0.381
				c3.178-0.646,7.562-1.84,9.878-4.502c2.168-2.491,2.952-5.77,3.32-9.025c0.703-6.225,1.407-12.451,2.11-18.676
				C200.743,197.714,201.811,190.868,198.899,185.753z"/>
			
				<radialGradient id="SVGID_00000036971105665671221790000000684814072437884587_" cx="1331.7462" cy="-62.815" r="7.8827" gradientTransform="matrix(0.8513 0.0844 -0.0558 0.5521 -944.3578 143.6588)" gradientUnits="userSpaceOnUse">
				<stop  offset="0" style="stop-color:#B02057"/>
				<stop  offset="1" style="stop-color:#B02054;stop-opacity:0"/>
			</radialGradient>
			<path style="opacity:0.36;fill:url(#SVGID_00000036971105665671221790000000684814072437884587_);" d="M199.653,222.051
				c-0.25,2.477-3.492,4.183-7.242,3.812c-3.749-0.371-6.585-2.68-6.334-5.157c0.251-2.477,3.493-4.183,7.241-3.812
				C197.068,217.266,199.904,219.574,199.653,222.051z"/>
			<path style="fill:#2A1B36;" d="M163.125,198.543c3.019-0.999,6.326-1.473,9.476-0.985c2.406,0.373,5.626,1.111,6.589,3.267
				c0.129,0.289-0.08,0.638-0.448,0.686c-2.073,0.269-4.159-0.632-6.204-0.833c-2.738-0.269-5.382-0.046-8.028,0.748
				C162.312,202.085,160.899,199.28,163.125,198.543z"/>
			<path style="fill:#2A1B36;" d="M200.629,200.84c-1.587-1.069-3.454-1.636-5.429-1.263c-1.508,0.285-3.577,0.898-4.598,2.963
				c-0.137,0.276-0.086,0.623,0.124,0.681c1.176,0.329,2.604-0.48,3.863-0.609c1.684-0.173,3.21,0.129,4.618,0.986
				C200.375,204.309,201.799,201.628,200.629,200.84z"/>
			
				<radialGradient id="SVGID_00000053511190532108808690000010038152840917899438_" cx="1247.7599" cy="-61.3011" r="7.8822" gradientTransform="matrix(1.1901 0.1179 -0.0558 0.5521 -1318.6099 106.6381)" gradientUnits="userSpaceOnUse">
				<stop  offset="0" style="stop-color:#B02057"/>
				<stop  offset="1" style="stop-color:#B02054;stop-opacity:0"/>
			</radialGradient>
			<path style="opacity:0.36;fill:url(#SVGID_00000053511190532108808690000010038152840917899438_);" d="M179.261,220.846
				c-0.251,2.477-4.702,4.063-9.942,3.544c-5.24-0.519-9.285-2.948-9.035-5.425c0.251-2.477,4.702-4.063,9.942-3.544
				C175.466,215.94,179.511,218.369,179.261,220.846z"/>
			
				<linearGradient id="SVGID_00000005970355034315151060000008034957053392399497_" gradientUnits="userSpaceOnUse" x1="1250.8771" y1="273.1598" x2="1256.7466" y2="274.3172" gradientTransform="matrix(1 -4.000000e-04 4.000000e-04 1 -1066.8987 -53.6798)">
				<stop  offset="0" style="stop-color:#B02054;stop-opacity:0"/>
				<stop  offset="1" style="stop-color:#B02057"/>
			</linearGradient>
			<path style="fill:url(#SVGID_00000005970355034315151060000008034957053392399497_);" d="M183.965,216.482
				c-0.452,0.165-0.907,0.352-1.274,0.661c-0.981,0.825-1.071,2.411-0.37,3.479c0.769,1.173,2.575,1.974,3.943,1.979
				c0.795,0.003,1.608-0.024,2.349-0.31c1.348-0.52,2.423-2.4,1.798-3.779C189.434,216.351,185.973,215.749,183.965,216.482z"/>
			<g>
				<path style="fill:#2A1B36;" d="M151.047,219.944c-3.162-5.95-4.844-12.358-4.852-19.142c-0.004-3.467,0.263-6.964,1.235-10.294
					c2.918-9.993,11.832-16.506,21.85-18.546c1.54-0.314,2.964-0.301,4.449-0.797c1.646-0.55,3.315-1.018,5.013-1.379
					c3.392-0.721,6.869-1.042,10.336-0.947c4.497,0.123,9.304,1.113,12.388,4.389c0.776,0.824,1.443,1.846,1.466,2.978
					c0.038,1.897-1.661,3.314-3.199,4.425c1.791,1.501,3.546,3.24,4.195,5.485c0.913,3.158-1.603,7.33-5.069,7.036
					c-3.182-0.27-6.192-2.092-7.884-4.773c-0.144,2.001-1.854,3.685-3.82,4.176c-1.966,0.491-4.088-0.062-5.81-1.122
					c-1.721-1.06-3.094-2.589-4.336-4.175c-0.274,2.214-2.09,4.287-4.339,4.426c-0.721,0.045-7.534-0.378-7.385-1.326
					c-0.352,2.237-1.109,4.41-2.223,6.382c-1.072,1.897-4.128,4.761-6.382,2.684c0.348,1.283,0.271,2.637,0.191,3.963
					c-0.115,1.911-0.369,4.089-1.933,5.196c-2.078,1.471-1.538,4.757-1.207,6.892c0.216,1.392,0.547,2.769,0.723,4.167
					c0.186,1.475-0.21,2.242-0.673,3.592c-0.9-0.153-1.459-1.029-1.89-1.771C151.599,220.96,151.318,220.454,151.047,219.944z"/>
				<path style="fill:#3B264D;" d="M166.656,176.299c-5.944-0.692-11.087,3.903-12.16,9.524c-0.226,1.183-0.181,2.456,0.382,3.523
					c0.563,1.067,1.717,1.874,2.931,1.802c1.106-0.066,2.044-0.801,2.861-1.541c1.496-1.354,2.872-2.837,4.107-4.428
					c1.593,0.702,3.568,1.145,4.993,0.149c0.869-0.607,1.339-1.635,1.594-2.657c0.221-0.886,0.308-1.823,0.085-2.709
					C170.93,177.9,168.79,176.547,166.656,176.299z"/>
				<g>
					<path style="fill:#FFF35B;" d="M199.027,178.586c-0.198,0.243-0.337,0.537-0.372,0.925c-0.028,0.309,0.04,0.663,0.299,0.834
						c0.156,0.104,0.354,0.121,0.541,0.11c1.696-0.099,3.467-2.67,3.436-4.248c-0.014-0.715-0.286-1.385-0.679-1.989
						c0.01,1.174-0.669,2.172-1.468,2.973C200.237,177.737,199.478,178.032,199.027,178.586z"/>
					<path style="fill:#FFF35B;" d="M203.927,186.116c-0.132-0.457-0.32-0.887-0.534-1.304c0.387,3.035-2.002,6.59-5.21,6.318
						c-3.182-0.27-6.192-2.092-7.884-4.773c-0.143,2.001-1.854,3.685-3.82,4.176c-1.966,0.491-4.088-0.062-5.809-1.122
						c-1.721-1.06-3.094-2.589-4.336-4.175c-0.274,2.214-2.09,4.287-4.339,4.426c-0.721,0.044-7.533-0.378-7.385-1.326
						c-0.352,2.237-1.109,4.41-2.223,6.382c-1.072,1.897-4.128,4.761-6.382,2.684c0.348,1.283,0.271,2.637,0.191,3.963
						c-0.115,1.911-0.369,4.089-1.933,5.196c-2.078,1.471-1.538,4.757-1.207,6.892c0.216,1.392,0.547,2.769,0.723,4.167
						c0.186,1.475-0.209,2.242-0.673,3.592c-0.9-0.153-1.459-1.029-1.891-1.771c-0.292-0.503-0.574-1.009-0.845-1.518
						c-0.954-1.795-1.756-3.637-2.435-5.514c0.785,2.584,1.817,5.1,3.111,7.536c0.271,0.51,0.552,1.016,0.845,1.518
						c0.431,0.742,0.99,1.618,1.89,1.771c0.464-1.349,0.859-2.116,0.673-3.592c-0.176-1.398-0.507-2.775-0.723-4.167
						c-0.331-2.136-0.871-5.421,1.207-6.892c1.564-1.107,1.819-3.284,1.933-5.196c0.079-1.327,0.156-2.681-0.191-3.963
						c2.254,2.076,5.31-0.787,6.382-2.684c1.115-1.971,1.872-4.144,2.223-6.382c-0.149,0.948,6.664,1.37,7.385,1.326
						c2.249-0.139,4.065-2.212,4.339-4.426c1.242,1.586,2.615,3.115,4.336,4.175c1.721,1.061,3.844,1.613,5.81,1.122
						c1.966-0.491,3.676-2.174,3.82-4.176c1.692,2.681,4.702,4.503,7.884,4.773C202.325,193.446,204.841,189.274,203.927,186.116z"
						/>
				</g>
				<g>
					<path style="fill:#FC676B;" d="M157.041,215.053c0.606,4.401-1.259,8.364-4.167,8.852c-2.908,0.487-5.756-2.685-6.362-7.087
						c-0.606-4.401,1.259-8.364,4.167-8.852C153.587,207.479,156.435,210.651,157.041,215.053z"/>
					
						<linearGradient id="SVGID_00000172415124527366660560000006352272981759592103_" gradientUnits="userSpaceOnUse" x1="1214.1361" y1="-38.7367" x2="1210.9191" y2="-47.1963" gradientTransform="matrix(0.9775 0.2952 -0.2254 1.0927 -1043.6088 -98.8007)">
						<stop  offset="0" style="stop-color:#B02054;stop-opacity:0"/>
						<stop  offset="1" style="stop-color:#B02057"/>
					</linearGradient>
					<path style="fill:url(#SVGID_00000172415124527366660560000006352272981759592103_);" d="M157.041,215.053
						c0.606,4.401-1.259,8.364-4.167,8.852c-2.908,0.487-5.756-2.685-6.362-7.087c-0.606-4.401,1.259-8.364,4.167-8.852
						C153.587,207.479,156.435,210.651,157.041,215.053z"/>
				</g>
			</g>
			<path style="fill:#8C1F41;" d="M189.08,225.676c-4.33,1.172-8.46,1.121-12.462-0.879c0.166-0.352,0.366-0.693,0.438-1.07
				c0.076-0.396-0.255-0.712-0.652-0.619c-1.314,0.308-2.119,2.355-1.994,3.552c0.112,1.07,1.426,1.093,1.736,0.208
				c4.182,2.078,9.298,2.178,13.263-0.457C189.793,226.156,189.535,225.553,189.08,225.676z"/>
			<g>
				<path style="fill:#FFFFFF;" d="M174.175,206.677c-2.445-1.234-5.672-1.202-7.914,0.079c-1.05,0.6-1.896,1.468-2.24,2.5
					c-0.345,1.032-0.148,2.229,0.647,3.128c0.998,1.128,2.713,1.623,4.328,1.942c2.418,0.477,8.1,1.4,9.016-1.302
					C178.76,210.815,176.415,207.808,174.175,206.677z"/>
				<path style="fill:#2A1B36;" d="M174.175,206.677c-1.516-0.765-3.332-1.042-5.028-0.837c-1.466,1.054-2.443,2.917-2.443,5.044
					c0,1.123,0.276,2.169,0.748,3.066c0.507,0.152,1.029,0.275,1.543,0.376c1.651,0.326,4.824,0.857,6.962,0.303
					c0.723-1.023,1.158-2.325,1.158-3.744c0-0.697-0.11-1.364-0.302-1.986C176.073,207.96,175.116,207.152,174.175,206.677z"/>
			</g>
			<g>
				<path style="fill:#FFFFFF;" d="M191.733,208.468c1.96-0.762,4.281-0.135,5.691,1.536c0.661,0.783,1.132,1.791,1.215,2.868
					c0.084,1.077-0.249,2.216-0.967,2.953c-0.9,0.924-2.215,1.094-3.43,1.109c-1.819,0.023-6.063-0.118-6.29-2.94
					C187.766,211.687,189.937,209.166,191.733,208.468z"/>
				<path style="fill:#2A1B36;" d="M197.051,212.541c0-1.335-0.297-2.564-0.792-3.557c-1.347-0.87-3.04-1.094-4.526-0.516
					c-0.788,0.307-1.639,0.975-2.341,1.812c-0.191,0.698-0.298,1.46-0.298,2.261c0,1.459,0.351,2.794,0.932,3.83
					c1.41,0.536,3.196,0.575,4.217,0.562c0.542-0.007,1.101-0.049,1.637-0.171C196.603,215.684,197.051,214.191,197.051,212.541z"/>
			</g>
		</g>
		<g>
			<path style="fill:#FC676B;" d="M171.91,283.648c-2.235-0.352-8.052,1.577-8.052,1.577l-11.568,5.143
				c0,0,10.592-32.49,9.888-35.711c-1.061-4.854-2.62-8.999-4.882-11.598c0,0-9.763,1.136-14.955,15.636
				c-5.551,15.502-11.141,45.351-4.333,48.667c13.686,6.664,25.85-12.167,25.85-12.167l15.414-3.694
				C179.272,291.5,174.146,284,171.91,283.648z"/>
			<path style="fill:#AB2E46;" d="M159.415,300.666c-1.548,0.221-3.071,0.661-4.619,0.914c-2.855,0.466-6.961,0.573-9.59-0.878
				c-2.883-1.592-0.498-4.876,1.177-6.617c0.043-0.045,0.087-0.09,0.131-0.134c1.701-1.712,3.877-2.86,5.947-4.113
				c0.541-1.671,2.325-7.211,4.227-13.445c-0.781-1.475-1.621-2.961-2.874-4.079c-2.186-1.952-5.154-2.935-8.084-2.915
				c-2.182,0.015-4.329,0.556-6.397,1.251c-0.201,0.067-0.399,0.142-0.599,0.213c-3.829,15.416-6.003,33.927-0.726,36.497
				C146.641,311.565,154.664,305.625,159.415,300.666z"/>
			<path style="fill:#FA942D;" d="M155.841,286.567c2.994-9.459,6.855-29.54,6.337-31.91c-1.061-4.854-2.62-8.999-4.882-11.598
				c0,0-9.763,1.136-14.955,15.636c-2.506,6.998-5.015,16.916-6.393,26L155.841,286.567z"/>
			<path style="fill:#FABB3C;" d="M144.714,285.519l11.127,1.047c2.994-9.459,6.855-29.54,6.337-31.91
				c-0.632-2.895-1.448-5.529-2.479-7.742c-2.932-0.918-5.628,2.872-6.997,5.18c-4.341,7.318-4.384,16.291-6.115,24.622
				C145.978,279.65,145.154,282.566,144.714,285.519z"/>
		</g>
		<g>
			<path style="fill:#FFF954;" d="M215.1,279.326c-0.844-1.009-2.538-1.367-3.489-0.458c1.151-1.64-0.385-4.196-2.383-4.345
				c-1.998-0.148-3.787,1.608-4.174,3.574c-0.02-2.459-2.257-4.684-4.716-4.691c-2.459-0.007-4.709,2.204-4.743,4.663
				c-0.985-2.174-3.34-3.817-5.7-3.46c-2.359,0.357-4.193,3.123-3.189,5.288c-0.878-1.006-1.903-2.089-3.236-2.166
				c-1.522-0.088-2.826,1.257-3.226,2.727c-0.4,1.471-0.117,3.03,0.168,4.527c-1.536-1.338-4.04-1.653-5.606-0.349
				c-1.565,1.304-1.467,4.252,0.374,5.125c-2.003,0.026-4.449,0.335-5.213,2.187c-0.708,1.719,0.701,3.716,2.455,4.332
				c1.535,0.538,2.905-0.153,4.359,0.091c1.495,0.251,0.849,0.313,2.143,1.022c2.025,1.109,3.444,1.976,5.873,2.181
				c6.475,0.546,13.079-0.502,19.067-3.026c5.86-2.47,11.593-7.145,12.127-13.482C216.103,281.755,215.944,280.335,215.1,279.326z"
				/>
			<g>
				<path style="fill:#FFFFFF;" d="M179.828,292.84l18.801,49.356c-2.429,0.446-4.687,0.715-6.67,0.813l-20.107-46.946
					c-1-2.334,0.238-5.02,2.662-5.777l0.034-0.011C176.709,289.601,179.022,290.725,179.828,292.84z"/>
				<path style="fill:#8C1F41;" d="M188.137,290.431l16.843,50.313c-2.21,0.603-4.34,1.087-6.351,1.453l-18.613-48.864
					c-0.879-2.308,0.37-4.879,2.727-5.615l0.055-0.017C185.024,287.006,187.397,288.219,188.137,290.431z"/>
				<path style="fill:#FFFFFF;" d="M196.432,288.025l14.718,50.792c-0.992,0.353-2.018,0.695-3.067,1.022s-2.087,0.63-3.104,0.904
					l-16.787-50.146c-0.762-2.276,0.495-4.735,2.786-5.45l0.062-0.019C193.332,284.413,195.764,285.72,196.432,288.025z"/>
				<path style="fill:#8C1F41;" d="M204.714,285.624L217.2,336.4c-1.862,0.843-3.89,1.656-6.05,2.418l-14.767-50.961
					c-0.649-2.24,0.613-4.587,2.839-5.282l0.055-0.017C201.634,281.822,204.124,283.226,204.714,285.624z"/>
				<path style="fill:#FFFFFF;" d="M212.981,283.226l10.167,50.049c-1.687,1.047-3.691,2.108-5.948,3.125l-12.612-51.288
					c-0.541-2.198,0.723-4.438,2.884-5.113l0.034-0.011C209.93,279.232,212.476,280.738,212.981,283.226z"/>
				<path style="fill:#8C1F41;" d="M215.729,277.422c2.49-0.777,5.09,0.832,5.506,3.407l7.456,46.193
					c0.275,1.702-1.874,3.96-5.543,6.252l-10.342-50.909C212.369,280.212,213.631,278.077,215.729,277.422L215.729,277.422z"/>
			</g>
			<g>
				<path style="fill:#66173D;" d="M171.507,295.256l20.453,47.753c-4.314,0.205-7.373-0.433-8.115-1.989l-20.143-42.233
					c-1.123-2.354,0.101-5.157,2.59-5.934l0,0C168.389,292.198,170.641,293.236,171.507,295.256z"/>
				<path style="fill:#66173D;" d="M184.665,305.536l13.965,36.66c2.011-0.365,4.141-0.85,6.351-1.453l-9.039-27.001
					C191.787,311.56,187.938,308.843,184.665,305.536z"/>
				<path style="fill:#BABABA;" d="M198.629,342.196l-13.965-36.66c-1.011-1.021-1.974-2.092-2.866-3.228
					c-2.082-2.649-3.768-5.616-4.969-8.765c-0.429-1.124-0.78-2.277-1.08-3.443c-0.399,0.007-0.802,0.051-1.202,0.176l-0.034,0.011
					c-2.424,0.757-3.661,3.443-2.662,5.777l20.107,46.946C193.943,342.911,196.2,342.642,198.629,342.196z"/>
				<path style="fill:#BABABA;" d="M195.941,313.742l9.039,27.002c1.017-0.274,2.055-0.576,3.104-0.904
					c1.049-0.327,2.074-0.669,3.067-1.022l-6.164-21.271c-0.11-0.036-0.222-0.065-0.332-0.102
					C201.669,316.444,198.738,315.211,195.941,313.742z"/>
				<path style="fill:#BABABA;" d="M217.2,336.4c2.257-1.017,4.261-2.078,5.948-3.125l-2.48-12.21
					c-2.541-0.366-5.067-0.808-7.57-1.347L217.2,336.4z"/>
				<path style="fill:#66173D;" d="M211.151,338.818c2.16-0.761,4.188-1.574,6.05-2.418l-4.103-16.683
					c-2.738-0.589-5.448-1.293-8.111-2.17L211.151,338.818z"/>
				<path style="fill:#66173D;" d="M228.691,327.022l-0.82-5.081c-2.407-0.246-4.81-0.533-7.203-0.877l2.48,12.21
					C226.817,330.982,228.966,328.724,228.691,327.022z"/>
			</g>
		</g>
	</g>
</g>
</svg>
